Genre:Animation | Adventure | Comedy | Family | Fantasy
Language: English
IMDb:http://www.imdb.com/title/tt0435761/
Source Video:Relizlab.Thanks
Source Audio:Ice/Prism.Thanks
Encoder: Tony2
...........................................
General
Complete name : Toy Story 3.2010.TS.FEEL-FREE
Format : AVI
Format/Info : Audio Video Interleave
File size : 900 MiB
Duration : 1h 34mn
Overall bit rate : 1 338 Kbps
...........................................
Video
Format : xvid
Codec ID : xvid
Duration : 1h 34mn
Bit rate : 1 200 Kbps
Width : 704 pixels
Height : 304 pixels
Display aspect ratio : 2.35:1
Frame rate : 25.000 fps
Resolution : 24 bits
Bits/(Pixel*Frame) : 0.224
Stream size : 808 MiB (90%)
.............................................
Audio
ID : 1
Format : MPEG Audio
Format version : Version 1
Format profile : Layer 3
Codec ID : 55
Codec ID/Hint : MP3
Duration : 1h 34mn
Bit rate mode : Constant
Bit rate : 128 Kbps
Channel(s) : 2 channels
Sampling rate : 48.0 KHz
Resolution : 16 bits
Stream size : 86.2 MiB (10%)
Alignment : Aligned on interleaves
Interleave, duration : 40 ms (1.00 video frame)
Interleave, preload duration : 504 ms
.............................................
Plot:
Woody, Buzz, and the rest of their toy-box friends are dumped in a day-care center after their owner, Andy, departs for college.
...................................................
Screenshots
 
http://postimg.com/image/17000/16720.jpg
 
http://postimg.com/image/17000/16721.jpg